<svg xmlns="http://www.w3.org/2000/svg" width="0" height="0" style="position:absolute" aria-hidden="true">
  <defs>
    <symbol id="i-arrow-right" viewBox="0 0 24 24"><path d="M5 12h14m-6-6 6 6-6 6"/></symbol>
    <symbol id="i-arrow-left"  viewBox="0 0 24 24"><path d="M19 12H5m6 6-6-6 6-6"/></symbol>
    <symbol id="i-check"       viewBox="0 0 24 24"><path d="m5 12 5 5L20 7"/></symbol>
    <symbol id="i-x"           viewBox="0 0 24 24"><path d="M18 6 6 18M6 6l12 12"/></symbol>
    <symbol id="i-plus"        viewBox="0 0 24 24"><path d="M12 5v14M5 12h14"/></symbol>
    <symbol id="i-minus"       viewBox="0 0 24 24"><path d="M5 12h14"/></symbol>
    <symbol id="i-search"      viewBox="0 0 24 24"><circle cx="11" cy="11" r="8"/><path d="m21 21-4.35-4.35"/></symbol>
    <symbol id="i-bell"        viewBox="0 0 24 24"><path d="M6 8a6 6 0 0 1 12 0c0 7 3 9 3 9H3s3-2 3-9M10 21a2 2 0 0 0 4 0"/></symbol>
    <symbol id="i-calendar"    viewBox="0 0 24 24"><rect x="3" y="4" width="18" height="18" rx="2"/><path d="M16 2v4M8 2v4M3 10h18"/></symbol>
    <symbol id="i-clock"       viewBox="0 0 24 24"><circle cx="12" cy="12" r="10"/><path d="M12 6v6l4 2"/></symbol>
    <symbol id="i-users"       viewBox="0 0 24 24"><path d="M16 21v-2a4 4 0 0 0-4-4H6a4 4 0 0 0-4 4v2"/><circle cx="9" cy="7" r="4"/><path d="M22 21v-2a4 4 0 0 0-3-3.87M16 3.13a4 4 0 0 1 0 7.75"/></symbol>
    <symbol id="i-user"        viewBox="0 0 24 24"><path d="M20 21v-2a4 4 0 0 0-4-4H8a4 4 0 0 0-4 4v2"/><circle cx="12" cy="7" r="4"/></symbol>
    <symbol id="i-money"       viewBox="0 0 24 24"><circle cx="12" cy="12" r="10"/><path d="M16 8h-6a2 2 0 1 0 0 4h4a2 2 0 1 1 0 4H8M12 6v2m0 8v2"/></symbol>
    <symbol id="i-credit"      viewBox="0 0 24 24"><rect x="2" y="5" width="20" height="14" rx="2"/><path d="M2 10h20M6 15h2M11 15h2"/></symbol>
    <symbol id="i-dumbbell"    viewBox="0 0 24 24"><path d="M14.4 14.4 9.6 9.6m9.4 4.8 1.4 1.4M3.6 8.2l1.4 1.4M6 18l1.4-1.4M16.6 6 18 7.4M22 22l-4.4-4.4m0-11.2L22 2M2 22l4.4-4.4"/></symbol>
    <symbol id="i-phone"       viewBox="0 0 24 24"><rect x="5" y="2" width="14" height="20" rx="2"/><path d="M12 18h.01"/></symbol>
    <symbol id="i-chart"       viewBox="0 0 24 24"><path d="M3 3v18h18M7 16l4-4 4 4 6-6"/></symbol>
    <symbol id="i-trending"    viewBox="0 0 24 24"><path d="m3 17 6-6 4 4 8-8"/><path d="M14 7h7v7"/></symbol>
    <symbol id="i-pie"         viewBox="0 0 24 24"><path d="M21 15.5A9 9 0 1 1 8.5 3"/><path d="M21 12A9 9 0 0 0 12 3v9z"/></symbol>
    <symbol id="i-spark"       viewBox="0 0 24 24"><path d="m12 3 2.4 6.6L21 12l-6.6 2.4L12 21l-2.4-6.6L3 12l6.6-2.4z"/></symbol>
    <symbol id="i-shield"      viewBox="0 0 24 24"><path d="M12 22s8-4 8-10V5l-8-3-8 3v7c0 6 8 10 8 10z"/></symbol>
    <symbol id="i-lock"        viewBox="0 0 24 24"><rect x="3" y="11" width="18" height="11" rx="2"/><path d="M7 11V7a5 5 0 0 1 10 0v4"/></symbol>
    <symbol id="i-mail"        viewBox="0 0 24 24"><rect x="2" y="4" width="20" height="16" rx="2"/><path d="m22 6-10 7L2 6"/></symbol>
    <symbol id="i-pin"         viewBox="0 0 24 24"><path d="M20 10c0 6-8 12-8 12s-8-6-8-12a8 8 0 0 1 16 0z"/><circle cx="12" cy="10" r="3"/></symbol>
    <symbol id="i-zap"         viewBox="0 0 24 24"><path d="M13 2 3 14h9l-1 8 10-12h-9z"/></symbol>
    <symbol id="i-settings"    viewBox="0 0 24 24"><circle cx="12" cy="12" r="3"/><path d="M19.4 15a1.65 1.65 0 0 0 .33 1.82l.06.06a2 2 0 0 1-2.83 2.83l-.06-.06a1.65 1.65 0 0 0-1.82-.33 1.65 1.65 0 0 0-1 1.51V21a2 2 0 0 1-4 0v-.09A1.65 1.65 0 0 0 9 19.4a1.65 1.65 0 0 0-1.82.33l-.06.06a2 2 0 0 1-2.83-2.83l.06-.06a1.65 1.65 0 0 0 .33-1.82 1.65 1.65 0 0 0-1.51-1H3a2 2 0 0 1 0-4h.09A1.65 1.65 0 0 0 4.6 9a1.65 1.65 0 0 0-.33-1.82l-.06-.06a2 2 0 0 1 2.83-2.83l.06.06a1.65 1.65 0 0 0 1.82.33H9a1.65 1.65 0 0 0 1-1.51V3a2 2 0 0 1 4 0v.09a1.65 1.65 0 0 0 1 1.51 1.65 1.65 0 0 0 1.82-.33l.06-.06a2 2 0 0 1 2.83 2.83l-.06.06a1.65 1.65 0 0 0-.33 1.82V9a1.65 1.65 0 0 0 1.51 1H21a2 2 0 0 1 0 4h-.09a1.65 1.65 0 0 0-1.51 1z"/></symbol>
    <symbol id="i-grid"        viewBox="0 0 24 24"><rect x="3" y="3" width="7" height="7"/><rect x="14" y="3" width="7" height="7"/><rect x="3" y="14" width="7" height="7"/><rect x="14" y="14" width="7" height="7"/></symbol>
    <symbol id="i-list"        viewBox="0 0 24 24"><path d="M8 6h13M8 12h13M8 18h13M3 6h.01M3 12h.01M3 18h.01"/></symbol>
    <symbol id="i-filter"      viewBox="0 0 24 24"><path d="M22 3H2l8 9.46V19l4 2v-8.54z"/></symbol>
    <symbol id="i-download"    viewBox="0 0 24 24"><path d="M21 15v4a2 2 0 0 1-2 2H5a2 2 0 0 1-2-2v-4M7 10l5 5 5-5M12 15V3"/></symbol>
    <symbol id="i-upload"      viewBox="0 0 24 24"><path d="M21 15v4a2 2 0 0 1-2 2H5a2 2 0 0 1-2-2v-4M17 8l-5-5-5 5M12 3v12"/></symbol>
    <symbol id="i-edit"        viewBox="0 0 24 24"><path d="M11 4H4a2 2 0 0 0-2 2v14a2 2 0 0 0 2 2h14a2 2 0 0 0 2-2v-7M18.5 2.5a2.121 2.121 0 0 1 3 3L12 15l-4 1 1-4z"/></symbol>
    <symbol id="i-trash"       viewBox="0 0 24 24"><path d="M3 6h18M8 6V4a2 2 0 0 1 2-2h4a2 2 0 0 1 2 2v2m3 0v14a2 2 0 0 1-2 2H7a2 2 0 0 1-2-2V6"/></symbol>
    <symbol id="i-more"        viewBox="0 0 24 24"><circle cx="12" cy="12" r="1.4"/><circle cx="19" cy="12" r="1.4"/><circle cx="5" cy="12" r="1.4"/></symbol>
    <symbol id="i-home"        viewBox="0 0 24 24"><path d="m3 9 9-7 9 7v11a2 2 0 0 1-2 2H5a2 2 0 0 1-2-2z"/><path d="M9 22V12h6v10"/></symbol>
    <symbol id="i-instagram"   viewBox="0 0 24 24"><rect x="2" y="2" width="20" height="20" rx="5"/><circle cx="12" cy="12" r="4"/><circle cx="17.5" cy="6.5" r="0.5" fill="currentColor"/></symbol>
    <symbol id="i-whatsapp"    viewBox="0 0 24 24"><path d="M21 12a9 9 0 1 1-3.6-7.2L21 3l-1.8 3.6A9 9 0 0 1 21 12zM8 11s.5 2 2 3.5S13 17 14 16l1-1-2-2-1 .5s-1.5-1-2-2l.5-1-2-2z"/></symbol>
    <symbol id="i-eye"         viewBox="0 0 24 24"><path d="M1 12s4-8 11-8 11 8 11 8-4 8-11 8-11-8-11-8z"/><circle cx="12" cy="12" r="3"/></symbol>
    <symbol id="i-eye-off"     viewBox="0 0 24 24"><path d="M17.94 17.94A10 10 0 0 1 12 20c-7 0-11-8-11-8a18.7 18.7 0 0 1 5.06-5.94M9.9 4.24A10 10 0 0 1 12 4c7 0 11 8 11 8a18.5 18.5 0 0 1-2.16 3.19m-6.72-1.07a3 3 0 1 1-4.24-4.24M1 1l22 22"/></symbol>
    <symbol id="i-link"        viewBox="0 0 24 24"><path d="M10 13a5 5 0 0 0 7.54.54l3-3a5 5 0 0 0-7.07-7.07l-1.72 1.71M14 11a5 5 0 0 0-7.54-.54l-3 3a5 5 0 0 0 7.07 7.07l1.71-1.71"/></symbol>
    <symbol id="i-globe"       viewBox="0 0 24 24"><circle cx="12" cy="12" r="10"/><path d="M2 12h20M12 2a15.3 15.3 0 0 1 4 10 15.3 15.3 0 0 1-4 10 15.3 15.3 0 0 1-4-10 15.3 15.3 0 0 1 4-10z"/></symbol>
    <symbol id="i-palette"     viewBox="0 0 24 24"><circle cx="13.5" cy="6.5" r=".5" fill="currentColor"/><circle cx="17.5" cy="10.5" r=".5" fill="currentColor"/><circle cx="8.5" cy="7.5" r=".5" fill="currentColor"/><circle cx="6.5" cy="12.5" r=".5" fill="currentColor"/><path d="M12 2C6.5 2 2 6.5 2 12s4.5 10 10 10c.83 0 1.5-.67 1.5-1.5 0-.39-.15-.74-.39-1-.23-.27-.38-.62-.38-1 0-.83.67-1.5 1.5-1.5H16c3.31 0 6-2.69 6-6 0-5.5-4.5-10-10-10z"/></symbol>
  </defs>
</svg>
